<svg width="189" height="77" viewBox="0 0 189 77" fill="none" xmlns="http://www.w3.org/2000/svg">
<path d="M21.535 32H1.06V1.445H21.31V3.785H4.165V14.495H19.06V16.925H4.165V29.66H21.535V32ZM45.3523 6.305L43.1473 7.97C42.3373 6.56 41.2273 5.465 39.8173 4.685C38.4373 3.905 36.8923 3.515 35.1823 3.515C32.9023 3.515 31.1023 3.935 29.7823 4.775C28.4623 5.615 27.8023 6.845 27.8023 8.465C27.8023 9.695 28.2973 10.73 29.2873 11.57C30.1573 12.29 31.3273 12.89 32.7973 13.37C33.0073 13.43 33.6223 13.64 34.6423 14C35.6923 14.33 36.3973 14.555 36.7573 14.675C37.6873 15.065 38.4523 15.38 39.0523 15.62C40.5223 16.22 41.7673 16.85 42.7873 17.51C43.8373 18.2 44.6323 19.055 45.1723 20.075C45.7423 21.155 46.0273 22.4 46.0273 23.81C46.0273 26.51 45.0073 28.64 42.9673 30.2C40.9273 31.73 38.1673 32.495 34.6873 32.495C32.6173 32.495 30.6673 32.12 28.8373 31.37C26.6473 30.47 25.0573 29.18 24.0673 27.5C23.4373 26.51 23.0173 25.415 22.8073 24.215L25.3723 23.09C26.6023 27.62 29.7823 29.885 34.9123 29.885C36.5323 29.885 38.0023 29.615 39.3223 29.075C40.8223 28.505 41.8423 27.575 42.3823 26.285C42.6823 25.655 42.8323 24.86 42.8323 23.9C42.8323 23.03 42.6073 22.085 42.1573 21.065C41.9773 20.735 41.6323 20.39 41.1223 20.03C40.5523 19.67 40.1623 19.4 39.9523 19.22C39.6223 19.01 38.4373 18.5 36.3973 17.69C36.0073 17.57 35.2423 17.3 34.1023 16.88C33.8923 16.85 33.7423 16.805 33.6523 16.745C32.3923 16.295 31.4473 15.95 30.8173 15.71C30.2173 15.47 29.4673 15.125 28.5673 14.675C27.6973 14.225 27.0373 13.805 26.5873 13.415C26.1673 12.995 25.7623 12.47 25.3723 11.84C25.0123 11.21 24.7723 10.505 24.6523 9.725C24.6223 9.515 24.6073 9.17 24.6073 8.69C24.6073 6.14 25.6573 4.205 27.7573 2.885C29.7073 1.655 32.0473 1.04 34.7773 1.04C39.6373 1.04 43.1623 2.795 45.3523 6.305ZM53.6077 3.83V16.385H59.2777C62.2477 16.385 64.5877 16.13 66.2977 15.62C67.8877 15.14 68.9527 14.135 69.4927 12.605C69.7627 11.885 69.8977 11 69.8977 9.95C69.8977 7.97 69.3727 6.5 68.3227 5.54C67.4227 4.76 65.6827 4.235 63.1027 3.965C61.9627 3.875 60.5377 3.83 58.8277 3.83H53.6077ZM50.3227 32V1.445H59.3677C64.3477 1.445 67.8577 2.075 69.8977 3.335C71.9377 4.565 72.9577 6.725 72.9577 9.815C72.9577 12.545 72.2527 14.615 70.8427 16.025C69.5527 17.285 67.1977 18.11 63.7777 18.5C62.1877 18.68 60.2977 18.77 58.1077 18.77H53.5177V32H50.3227ZM83.3492 6.845C82.8092 8.555 82.4642 9.695 82.3142 10.265L78.7592 21.38H90.0542L86.4992 10.265C85.6892 7.865 84.9692 5.63 84.3392 3.56C84.0692 4.55 83.7392 5.645 83.3492 6.845ZM72.3242 32L82.4942 1.445H86.4992L96.6692 32H93.5642L90.7292 23.675H78.0392L75.3842 32H72.3242ZM110.324 35.645V32.225H114.509V35.915C114.509 37.115 114.269 38.12 113.789 38.93C113.309 39.74 112.604 40.145 111.674 40.145C111.344 40.145 111.059 40.085 110.819 39.965V38.57C111.179 38.69 111.434 38.75 111.584 38.75C111.884 38.75 112.109 38.54 112.259 38.12C112.379 37.76 112.439 36.935 112.439 35.645H110.324ZM123.734 9.005L120.899 9.635C120.419 7.655 119.459 6.11 118.019 5C116.609 3.89 114.779 3.335 112.529 3.335C109.109 3.335 106.634 4.445 105.104 6.665C103.574 8.855 102.809 12.17 102.809 16.61C102.809 20.24 103.229 23.09 104.069 25.16C104.969 27.35 106.499 28.805 108.659 29.525C109.799 29.885 111.104 30.065 112.574 30.065C116.894 30.065 119.774 28.085 121.214 24.125L123.824 24.935C123.014 27.425 121.619 29.315 119.639 30.605C117.659 31.865 115.244 32.495 112.394 32.495C108.044 32.495 104.819 31.22 102.719 28.67C100.649 26.12 99.6135 22.1 99.6135 16.61C99.6135 6.11 103.949 0.859999 112.619 0.859999C115.439 0.859999 117.809 1.565 119.729 2.975C121.679 4.355 123.014 6.365 123.734 9.005ZM133.947 5.63C132.567 7.04 131.682 9.17 131.292 12.02C131.082 13.25 130.977 14.75 130.977 16.52C130.977 21.29 131.697 24.74 133.137 26.87C134.607 29 137.052 30.065 140.472 30.065C143.922 30.065 146.367 29.015 147.807 26.915C149.277 24.785 150.012 21.335 150.012 16.565C150.012 13.115 149.607 10.4 148.797 8.42C147.807 6.14 146.307 4.64 144.297 3.92C143.247 3.53 141.972 3.335 140.472 3.335C137.592 3.335 135.417 4.1 133.947 5.63ZM149.832 4.46C152.112 6.98 153.252 11 153.252 16.52C153.252 22.01 152.187 26.045 150.057 28.625C147.927 31.205 144.732 32.495 140.472 32.495C136.362 32.495 133.242 31.28 131.112 28.85C128.892 26.36 127.782 22.265 127.782 16.565C127.782 11.015 128.907 6.98 131.157 4.46C133.287 2.06 136.392 0.859999 140.472 0.859999C144.522 0.859999 147.642 2.06 149.832 4.46ZM24.505 53.005L21.67 53.635C21.19 51.655 20.23 50.11 18.79 49C17.38 47.89 15.55 47.335 13.3 47.335C9.88 47.335 7.405 48.445 5.875 50.665C4.345 52.855 3.58 56.17 3.58 60.61C3.58 64.24 4 67.09 4.84 69.16C5.74 71.35 7.27 72.805 9.43 73.525C10.57 73.885 11.875 74.065 13.345 74.065C17.665 74.065 20.545 72.085 21.985 68.125L24.595 68.935C23.785 71.425 22.39 73.315 20.41 74.605C18.43 75.865 16.015 76.495 13.165 76.495C8.815 76.495 5.59 75.22 3.49 72.67C1.42 70.12 0.385 66.1 0.385 60.61C0.385 50.11 4.72 44.86 13.39 44.86C16.21 44.86 18.58 45.565 20.5 46.975C22.45 48.355 23.785 50.365 24.505 53.005ZM32.2889 47.695V59.575H39.5789C41.6489 59.575 43.3289 59.38 44.6189 58.99C46.2089 58.51 47.3039 57.595 47.9039 56.245C48.2339 55.435 48.3989 54.55 48.3989 53.59C48.3989 51.64 47.8439 50.17 46.7339 49.18C45.9239 48.43 44.5589 47.965 42.6389 47.785C41.7389 47.725 40.8989 47.695 40.1189 47.695H32.2889ZM44.8889 61.51L51.9989 76H48.7589L41.8289 61.915H32.2889V76H29.2289V45.445H40.2989C44.2589 45.445 47.1089 46.09 48.8489 47.38C50.6189 48.67 51.5039 50.725 51.5039 53.545C51.5039 57.655 49.2989 60.31 44.8889 61.51ZM61.5695 49.63C60.1895 51.04 59.3045 53.17 58.9145 56.02C58.7045 57.25 58.5995 58.75 58.5995 60.52C58.5995 65.29 59.3195 68.74 60.7595 70.87C62.2295 73 64.6745 74.065 68.0945 74.065C71.5445 74.065 73.9895 73.015 75.4295 70.915C76.8995 68.785 77.6345 65.335 77.6345 60.565C77.6345 57.115 77.2295 54.4 76.4195 52.42C75.4295 50.14 73.9295 48.64 71.9195 47.92C70.8695 47.53 69.5945 47.335 68.0945 47.335C65.2145 47.335 63.0395 48.1 61.5695 49.63ZM77.4545 48.46C79.7345 50.98 80.8745 55 80.8745 60.52C80.8745 66.01 79.8095 70.045 77.6795 72.625C75.5495 75.205 72.3545 76.495 68.0945 76.495C63.9845 76.495 60.8645 75.28 58.7345 72.85C56.5145 70.36 55.4045 66.265 55.4045 60.565C55.4045 55.015 56.5295 50.98 58.7795 48.46C60.9095 46.06 64.0145 44.86 68.0945 44.86C72.1445 44.86 75.2645 46.06 77.4545 48.46ZM109.803 53.005L106.968 53.635C106.488 51.655 105.528 50.11 104.088 49C102.678 47.89 100.848 47.335 98.5979 47.335C95.1779 47.335 92.7029 48.445 91.1729 50.665C89.6429 52.855 88.8779 56.17 88.8779 60.61C88.8779 64.24 89.2979 67.09 90.1379 69.16C91.0379 71.35 92.5679 72.805 94.7279 73.525C95.8679 73.885 97.1729 74.065 98.6429 74.065C102.963 74.065 105.843 72.085 107.283 68.125L109.893 68.935C109.083 71.425 107.688 73.315 105.708 74.605C103.728 75.865 101.313 76.495 98.4629 76.495C94.1129 76.495 90.8879 75.22 88.7879 72.67C86.7179 70.12 85.6829 66.1 85.6829 60.61C85.6829 50.11 90.0179 44.86 98.6879 44.86C101.508 44.86 103.878 45.565 105.798 46.975C107.748 48.355 109.083 50.365 109.803 53.005ZM135.767 58.54V45.445H138.782V76H135.767V60.97H117.632V76H114.527V45.445H117.632V58.54H135.767ZM165.368 76H144.893V45.445H165.143V47.785H147.998V58.495H162.893V60.925H147.998V73.66H165.368V76ZM165.875 47.785V45.445H188.87V47.785H178.97V76H175.775V47.785H165.875Z" fill="#A083BE"/>
</svg>
